<?xml version="1.0" encoding="UTF-8"?>
<svg version="1.1" xmlns="http://www.w3.org/2000/svg" width="31" height="50">
<path d="M0 0 C2.33203125 0.33984375 2.33203125 0.33984375 4.14453125 1.52734375 C5.75944077 3.99220566 5.65553508 5.42911803 5.33203125 8.33984375 C3.86328125 10.3762207 3.86328125 10.3762207 1.83203125 12.328125 C1.11015625 13.03388672 0.38828125 13.73964844 -0.35546875 14.46679688 C-1.11859375 15.18802734 -1.88171875 15.90925781 -2.66796875 16.65234375 C-3.43109375 17.39291016 -4.19421875 18.13347656 -4.98046875 18.89648438 C-6.86556907 20.72267531 -8.76132444 22.53620134 -10.66796875 24.33984375 C-9.31920854 27.38013616 -7.84381995 29.36221939 -5.41015625 31.6171875 C-4.78496094 32.21337891 -4.15976562 32.80957031 -3.515625 33.42382812 C-2.19830735 34.66158501 -0.87534472 35.89336083 0.453125 37.11914062 C5.21623557 41.6899517 5.21623557 41.6899517 5.8359375 45.16796875 C5.21214326 47.85657027 4.64603592 48.82377173 2.33203125 50.33984375 C0.00024414 50.66723633 0.00024414 50.66723633 -2.66796875 50.33984375 C-4.91625977 48.64331055 -4.91625977 48.64331055 -7.171875 46.2890625 C-7.99494141 45.44537109 -8.81800781 44.60167969 -9.66601562 43.73242188 C-10.51228516 42.83974609 -11.35855469 41.94707031 -12.23046875 41.02734375 C-13.91719042 39.27924024 -15.60591783 37.5330693 -17.296875 35.7890625 C-18.0401001 35.00877686 -18.7833252 34.22849121 -19.54907227 33.42456055 C-21.59188406 31.30707093 -21.59188406 31.30707093 -23.90258789 29.73852539 C-25.66796875 28.33984375 -25.66796875 28.33984375 -26.28515625 25.51171875 C-25.44192353 21.17814302 -23.04780836 19.29378098 -19.79296875 16.58984375 C-18.59561715 15.55052158 -17.40032908 14.50881775 -16.20703125 13.46484375 C-15.60922852 12.94664063 -15.01142578 12.4284375 -14.39550781 11.89453125 C-11.00869506 8.84659123 -7.96662275 5.45961077 -4.88671875 2.10546875 C-2.66796875 0.33984375 -2.66796875 0.33984375 0 0 Z " fill="#C70000" transform="translate(25.66796875,-0.33984375)"/>
</svg>
