<?xml version="1.0" encoding="UTF-8"?>
<svg version="1.1" xmlns="http://www.w3.org/2000/svg" width="30" height="50">
<path d="M0 0 C2.5871582 1.92431641 2.5871582 1.92431641 5.30078125 4.6015625 C5.7820195 5.07564545 6.26325775 5.54972839 6.75907898 6.03817749 C7.77115548 7.04248454 8.77689509 8.05321273 9.77661133 9.06982422 C11.30610854 10.61852827 12.86262265 12.13568788 14.42382812 13.65234375 C15.40541998 14.63364519 16.385298 15.6166646 17.36328125 16.6015625 C18.25313721 17.49182129 19.14299316 18.38208008 20.05981445 19.29931641 C22 22 22 22 22.57958984 25 C21.80992452 28.98384476 20.22019883 30.54022661 17.36328125 33.3984375 C16.88682663 33.8782608 16.41037201 34.35808411 15.91947937 34.85244751 C14.91199646 35.85963234 13.89705136 36.85940124 12.87524414 37.85205078 C11.31533101 39.37224108 9.78694871 40.91966369 8.25976562 42.47265625 C7.27518383 43.44967966 6.28890963 44.42500113 5.30078125 45.3984375 C4.40528564 46.28192871 3.50979004 47.16541992 2.5871582 48.07568359 C0 50 0 50 -2.71801758 50.36181641 C-5 50 -5 50 -6.8125 48.8125 C-8.42740952 46.34763809 -8.32350383 44.91072572 -8 42 C-6.53125 39.96362305 -6.53125 39.96362305 -4.5 38.01171875 C-3.778125 37.30595703 -3.05625 36.60019531 -2.3125 35.87304688 C-1.549375 35.15181641 -0.78625 34.43058594 0 33.6875 C0.763125 32.94693359 1.52625 32.20636719 2.3125 31.44335938 C4.19760032 29.61716844 6.09335569 27.80364241 8 26 C6.65123979 22.95970759 5.1758512 20.97762436 2.7421875 18.72265625 C2.11699219 18.12646484 1.49179688 17.53027344 0.84765625 16.91601562 C-0.4696614 15.67825874 -1.79262403 14.44648292 -3.12109375 13.22070312 C-7.88420432 8.64989205 -7.88420432 8.64989205 -8.50390625 5.171875 C-7.37762351 0.31750908 -4.7071346 -0.6266032 0 0 Z " fill="#C70000" transform="translate(8,0)"/>
</svg>
